# xmcd
#
# Track frame offsets: 
#        150
#        4170
#        14990
#        35932
#        54525
#        68162
#        71795
#        89812
#        108160
#        124345
#        126867
#        144875
#        160555
#        178317
#        197745
#        231727
#
# Disc length: 4276 seconds
#
# Revision: 1
# Processed by: cddbd v1.5.2PL0 Copyright (c) Steve Scherf et al.
# Submitted via: ExactAudioCopy v0.99pb5
#
DISCID=f710b210
DTITLE=Bravehearts - Bravehearted
DYEAR=2003
DGENRE=Hip-Hop
TTITLE0=Intro
TTITLE1=B Train
TTITLE2=Quick To Back Down (feat. Nas and Lil Jon)
TTITLE3=Twilight (feat. Nas)
TTITLE4=Bravehearted (feat. Nas)
TTITLE5=For The Love Interlude
TTITLE6=Buss My Gun (feat. Nashawn)
TTITLE7=Cash Flow
TTITLE8=Situations (feat. Nas and Jully Black)
TTITLE9=Freak Off Interlude
TTITLE10=I Wanna
TTITLE11=Sensations
TTITLE12=Realize (feat. Nashawn and Teedra Moses)
TTITLE13=I Will
TTITLE14=Oochie Wally (Remix) (feat. Nas) [Bonus Track]
TTITLE15=DATA (Quick To Back Down -VIDEO)
EXTD=
EXTT0=
EXTT1=
EXTT2=
EXTT3=
EXTT4=
EXTT5=
EXTT6=
EXTT7=
EXTT8=
EXTT9=
EXTT10=
EXTT11=
EXTT12=
EXTT13=
EXTT14=
EXTT15=
PLAYORDER=
